<svg width="10" height="10" viewBox="0 0 10 10" fill="none" xmlns="http://www.w3.org/2000/svg">
<path d="M9.79936 5.12526C9.79838 5.0485 9.7755 4.97337 9.73341 4.90871C9.69132 4.84406 9.63178 4.79256 9.56177 4.76028L0.967387 0.765865C0.892429 0.732264 0.809267 0.72215 0.728948 0.736867C0.648629 0.751584 0.574953 0.790434 0.517706 0.848259C0.460459 0.906085 0.42235 0.980147 0.408441 1.06061C0.394532 1.14107 0.405482 1.22413 0.439835 1.29875L1.94668 4.72592L5.56727 4.72165L5.57567 5.52556L1.94362 5.52413L0.511212 8.953C0.480068 9.02716 0.472012 9.1092 0.488089 9.18849C0.504167 9.26779 0.543635 9.34069 0.601384 9.39775C0.660766 9.4542 0.735671 9.49152 0.816221 9.50478C0.896772 9.51805 0.979185 9.50663 1.0526 9.47205L9.56363 5.48436C9.63317 5.45338 9.69225 5.40317 9.73399 5.33959C9.77573 5.27601 9.7984 5.20168 9.79936 5.12526Z" fill="#008BB7"/>
</svg>
