<svg width="14" height="12" viewBox="0 0 14 12" fill="none" xmlns="http://www.w3.org/2000/svg">
<path d="M14 4.65333V10.6667C14 11.4 13.37 12 12.6 12H1.4C0.63 12 0 11.4 0 10.6667V2.66667C0 1.93333 0.63 1.33333 1.4 1.33333H8.47C8.428 1.54667 8.4 1.77333 8.4 2C8.4 2.98667 8.855 3.86 9.569 4.47333L7 6L1.4 2.66667V4L7 7.33333L10.71 5.12C11.088 5.25333 11.48 5.33333 11.9 5.33333C12.691 5.33333 13.412 5.07333 14 4.65333ZM9.8 2C9.8 3.10667 10.738 4 11.9 4C13.062 4 14 3.10667 14 2C14 0.893333 13.062 0 11.9 0C10.738 0 9.8 0.893333 9.8 2Z" fill="white"/>
</svg>
