<svg width="14" height="14" viewBox="0 0 14 14" fill="none" xmlns="http://www.w3.org/2000/svg">
<path d="M13.8185 7.22679L7.51925 0.221711C7.25398 -0.0739036 6.74443 -0.0739036 6.47916 0.221711L0.179869 7.22679C0.0891981 7.32738 0.0296826 7.45217 0.00855868 7.58598C-0.0125652 7.7198 0.0056125 7.85687 0.0608818 7.98054C0.172869 8.23342 0.423441 8.39594 0.69991 8.39594H2.09975V13.2995C2.09975 13.4853 2.1735 13.6635 2.30476 13.7948C2.43602 13.9262 2.61404 14 2.79968 14H4.89944C5.08507 14 5.2631 13.9262 5.39436 13.7948C5.52562 13.6635 5.59936 13.4853 5.59936 13.2995V10.4975H8.39905V13.2995C8.39905 13.4853 8.47279 13.6635 8.60405 13.7948C8.73531 13.9262 8.91334 14 9.09897 14H11.1987C11.3844 14 11.5624 13.9262 11.6937 13.7948C11.8249 13.6635 11.8987 13.4853 11.8987 13.2995V8.39594H13.2985C13.4341 8.39651 13.5668 8.35761 13.6807 8.28396C13.7945 8.21031 13.8845 8.1051 13.9396 7.98116C13.9948 7.85722 14.0127 7.71991 13.9912 7.58596C13.9697 7.45201 13.9097 7.32721 13.8185 7.22679Z" fill="black" fill-opacity="0.5"/>
</svg>
