<svg width="17" height="17" viewBox="0 0 17 17" fill="none" xmlns="http://www.w3.org/2000/svg">
<path fill-rule="evenodd" clip-rule="evenodd" d="M4.99568 0.051C5.90209 0.00927271 6.19109 0 8.5 0C10.8089 0 11.0979 0.0100454 12.0035 0.051C12.9092 0.0919545 13.5274 0.236455 14.0683 0.445864C14.6347 0.659909 15.1485 0.9945 15.5735 1.42723C16.0063 1.85145 16.3401 2.36455 16.5534 2.93173C16.7635 3.47264 16.9073 4.09082 16.949 4.99491C16.9907 5.90286 17 6.19186 17 8.5C17 10.8089 16.99 11.0979 16.949 12.0043C16.908 12.9084 16.7635 13.5266 16.5534 14.0675C16.3401 14.6348 16.0057 15.1487 15.5735 15.5735C15.1485 16.0063 14.6347 16.3401 14.0683 16.5534C13.5274 16.7635 12.9092 16.9073 12.0051 16.949C11.0979 16.9907 10.8089 17 8.5 17C6.19109 17 5.90209 16.99 4.99568 16.949C4.09159 16.908 3.47341 16.7635 2.9325 16.5534C2.36526 16.3401 1.85132 16.0057 1.42645 15.5735C0.994021 15.1491 0.65938 14.6354 0.445864 14.0683C0.236455 13.5274 0.0927273 12.9092 0.051 12.0051C0.00927271 11.0971 0 10.8081 0 8.5C0 6.19109 0.0100454 5.90209 0.051 4.99645C0.0919545 4.09082 0.236455 3.47264 0.445864 2.93173C0.659695 2.36461 0.994592 1.85092 1.42723 1.42645C1.85149 0.994115 2.36491 0.659479 2.93173 0.445864C3.47264 0.236455 4.09082 0.0927273 4.99491 0.051H4.99568ZM11.9348 1.581C11.0384 1.54005 10.7695 1.53155 8.5 1.53155C6.2305 1.53155 5.96159 1.54005 5.06523 1.581C4.23609 1.61886 3.78636 1.75718 3.48655 1.87386C3.09014 2.02841 2.80655 2.21155 2.50905 2.50905C2.22703 2.7834 2.01 3.1174 1.87386 3.48655C1.75718 3.78636 1.61886 4.23609 1.581 5.06523C1.54005 5.96159 1.53155 6.2305 1.53155 8.5C1.53155 10.7695 1.54005 11.0384 1.581 11.9348C1.61886 12.7639 1.75718 13.2136 1.87386 13.5135C2.00986 13.882 2.227 14.2166 2.50905 14.491C2.78336 14.773 3.11795 14.9901 3.48655 15.1261C3.78636 15.2428 4.23609 15.3811 5.06523 15.419C5.96159 15.46 6.22973 15.4685 8.5 15.4685C10.7703 15.4685 11.0384 15.46 11.9348 15.419C12.7639 15.3811 13.2136 15.2428 13.5135 15.1261C13.9099 14.9716 14.1935 14.7885 14.491 14.491C14.773 14.2166 14.9901 13.882 15.1261 13.5135C15.2428 13.2136 15.3811 12.7639 15.419 11.9348C15.46 11.0384 15.4685 10.7695 15.4685 8.5C15.4685 6.2305 15.46 5.96159 15.419 5.06523C15.3811 4.23609 15.2428 3.78636 15.1261 3.48655C14.9716 3.09014 14.7885 2.80655 14.491 2.50905C14.2166 2.22706 13.8826 2.01003 13.5135 1.87386C13.2136 1.75718 12.7639 1.61886 11.9348 1.581ZM7.41432 11.1203C8.02065 11.3727 8.69579 11.4068 9.32444 11.2167C9.9531 11.0266 10.4963 10.6242 10.8612 10.0781C11.226 9.53203 11.39 8.87622 11.3251 8.22267C11.2602 7.56913 10.9704 6.95839 10.5052 6.49477C10.2087 6.19841 9.85012 5.97149 9.45535 5.83034C9.06058 5.68919 8.63942 5.63732 8.2222 5.67848C7.80498 5.71963 7.40207 5.85277 7.04248 6.06833C6.6829 6.28388 6.37557 6.57648 6.14264 6.92507C5.90971 7.27365 5.75696 7.66954 5.6954 8.08424C5.63383 8.49894 5.66498 8.92214 5.7866 9.32335C5.90822 9.72457 6.11728 10.0938 6.39874 10.4046C6.6802 10.7153 7.02705 10.9597 7.41432 11.1203ZM5.41064 5.41064C5.81634 5.00494 6.29797 4.68312 6.82805 4.46355C7.35812 4.24399 7.92625 4.13098 8.5 4.13098C9.07375 4.13098 9.64188 4.24399 10.172 4.46355C10.702 4.68312 11.1837 5.00494 11.5894 5.41064C11.9951 5.81634 12.3169 6.29797 12.5364 6.82805C12.756 7.35812 12.869 7.92625 12.869 8.5C12.869 9.07375 12.756 9.64188 12.5364 10.172C12.3169 10.702 11.9951 11.1837 11.5894 11.5894C10.77 12.4087 9.65874 12.869 8.5 12.869C7.34126 12.869 6.22999 12.4087 5.41064 11.5894C4.59129 10.77 4.13098 9.65874 4.13098 8.5C4.13098 7.34126 4.59129 6.22999 5.41064 5.41064ZM13.838 4.78164C13.9385 4.6868 14.019 4.57275 14.0747 4.44625C14.1304 4.31975 14.1601 4.18337 14.1621 4.04517C14.1641 3.90698 14.1384 3.76979 14.0864 3.64172C14.0345 3.51365 13.9573 3.3973 13.8596 3.29958C13.7619 3.20185 13.6455 3.12472 13.5175 3.07276C13.3894 3.02081 13.2522 2.99507 13.114 2.99709C12.9758 2.9991 12.8394 3.02882 12.7129 3.08449C12.5864 3.14016 12.4724 3.22065 12.3775 3.32118C12.1931 3.5167 12.0921 3.77641 12.096 4.04517C12.1 4.31393 12.2085 4.57059 12.3985 4.76065C12.5886 4.95071 12.8452 5.05922 13.114 5.06314C13.3828 5.06706 13.6425 4.96608 13.838 4.78164Z" fill="#F8F8F8"/>
</svg>
