<svg width="16" height="15" viewBox="0 0 16 15" fill="none" xmlns="http://www.w3.org/2000/svg">
<path d="M10.666 5.3335C11.7269 5.3335 12.7443 5.75492 13.4944 6.50507C14.2446 7.25521 14.666 8.27263 14.666 9.3335V14.0002H11.9993V9.3335C11.9993 8.97987 11.8589 8.64074 11.6088 8.39069C11.3588 8.14064 11.0196 8.00016 10.666 8.00016C10.3124 8.00016 9.97326 8.14064 9.72321 8.39069C9.47316 8.64074 9.33268 8.97987 9.33268 9.3335V14.0002H6.66602V9.3335C6.66602 8.27263 7.08744 7.25521 7.83759 6.50507C8.58773 5.75492 9.60515 5.3335 10.666 5.3335V5.3335Z" stroke="#F8F8F8" stroke-width="2" stroke-linecap="round" stroke-linejoin="round"/>
<path d="M1.33301 6H3.99967V14H1.33301V6Z" stroke="#F8F8F8" stroke-width="2" stroke-linecap="round" stroke-linejoin="round"/>
<path d="M2.66634 4.00016C3.40272 4.00016 3.99967 3.40321 3.99967 2.66683C3.99967 1.93045 3.40272 1.3335 2.66634 1.3335C1.92996 1.3335 1.33301 1.93045 1.33301 2.66683C1.33301 3.40321 1.92996 4.00016 2.66634 4.00016Z" stroke="#F8F8F8" stroke-width="2" stroke-linecap="round" stroke-linejoin="round"/>
</svg>
