<svg width="27" height="27" viewBox="0 0 27 27" fill="none" xmlns="http://www.w3.org/2000/svg">
<path d="M5.90625 8.4375C5.68247 8.4375 5.46786 8.52639 5.30963 8.68463C5.15139 8.84286 5.0625 9.05747 5.0625 9.28125C5.0625 9.50503 5.15139 9.71964 5.30963 9.87787C5.46786 10.0361 5.68247 10.125 5.90625 10.125H17.7188C17.9425 10.125 18.1571 10.0361 18.3154 9.87787C18.4736 9.71964 18.5625 9.50503 18.5625 9.28125C18.5625 9.05747 18.4736 8.84286 18.3154 8.68463C18.1571 8.52639 17.9425 8.4375 17.7188 8.4375H5.90625ZM5.90625 11.8125C5.68247 11.8125 5.46786 11.9014 5.30963 12.0596C5.15139 12.2179 5.0625 12.4325 5.0625 12.6562V16.0312C5.0625 16.255 5.15139 16.4696 5.30963 16.6279C5.46786 16.7861 5.68247 16.875 5.90625 16.875H9.28125C9.50503 16.875 9.71964 16.7861 9.87787 16.6279C10.0361 16.4696 10.125 16.255 10.125 16.0312V12.6562C10.125 12.4325 10.0361 12.2179 9.87787 12.0596C9.71964 11.9014 9.50503 11.8125 9.28125 11.8125H5.90625ZM6.75 15.1875V13.5H8.4375V15.1875H6.75ZM12.6562 11.8125C12.4325 11.8125 12.2179 11.9014 12.0596 12.0596C11.9014 12.2179 11.8125 12.4325 11.8125 12.6562C11.8125 12.88 11.9014 13.0946 12.0596 13.2529C12.2179 13.4111 12.4325 13.5 12.6562 13.5H17.7188C17.9425 13.5 18.1571 13.4111 18.3154 13.2529C18.4736 13.0946 18.5625 12.88 18.5625 12.6562C18.5625 12.4325 18.4736 12.2179 18.3154 12.0596C18.1571 11.9014 17.9425 11.8125 17.7188 11.8125H12.6562ZM12.6562 15.1875C12.4325 15.1875 12.2179 15.2764 12.0596 15.4346C11.9014 15.5929 11.8125 15.8075 11.8125 16.0312C11.8125 16.255 11.9014 16.4696 12.0596 16.6279C12.2179 16.7861 12.4325 16.875 12.6562 16.875H17.7188C17.9425 16.875 18.1571 16.7861 18.3154 16.6279C18.4736 16.4696 18.5625 16.255 18.5625 16.0312C18.5625 15.8075 18.4736 15.5929 18.3154 15.4346C18.1571 15.2764 17.9425 15.1875 17.7188 15.1875H12.6562ZM1.6875 6.75C1.6875 5.85489 2.04308 4.99645 2.67601 4.36351C3.30895 3.73058 4.16739 3.375 5.0625 3.375H18.5625C19.4576 3.375 20.316 3.73058 20.949 4.36351C21.5819 4.99645 21.9375 5.85489 21.9375 6.75C22.8326 6.75 23.691 7.10558 24.324 7.73851C24.9569 8.37145 25.3125 9.22989 25.3125 10.125V17.7188C25.3125 18.8376 24.868 19.9107 24.0769 20.7019C23.2857 21.493 22.2126 21.9375 21.0938 21.9375H5.90625C4.78737 21.9375 3.71431 21.493 2.92314 20.7019C2.13197 19.9107 1.6875 18.8376 1.6875 17.7188V6.75ZM21.0938 17.7188C20.87 17.7188 20.6554 17.6299 20.4971 17.4716C20.3389 17.3134 20.25 17.0988 20.25 16.875V6.75C20.25 6.30245 20.0722 5.87322 19.7557 5.55676C19.4393 5.24029 19.0101 5.0625 18.5625 5.0625H5.0625C4.61495 5.0625 4.18572 5.24029 3.86926 5.55676C3.55279 5.87322 3.375 6.30245 3.375 6.75V17.7188C3.375 18.3901 3.64168 19.0339 4.11639 19.5086C4.59109 19.9833 5.23492 20.25 5.90625 20.25H21.0938C21.7651 20.25 22.4089 19.9833 22.8836 19.5086C23.3583 19.0339 23.625 18.3901 23.625 17.7188V10.125C23.625 9.67745 23.4472 9.24823 23.1307 8.93176C22.8143 8.61529 22.3851 8.4375 21.9375 8.4375V16.875C21.9375 17.0988 21.8486 17.3134 21.6904 17.4716C21.5321 17.6299 21.3175 17.7188 21.0938 17.7188Z" fill="#008BB7"/>
</svg>
