<svg width="16" height="14" viewBox="0 0 16 14" fill="none" xmlns="http://www.w3.org/2000/svg">
<path d="M4.8 11.375H6.4V10.5H7.2C7.64 10.5 8 10.1062 8 9.625V7C8 6.51875 7.64 6.125 7.2 6.125H4.8V5.25H8V3.5H6.4V2.625H4.8V3.5H4C3.56 3.5 3.2 3.89375 3.2 4.375V7C3.2 7.48125 3.56 7.875 4 7.875H6.4V8.75H3.2V10.5H4.8V11.375ZM14.4 0H1.6C0.712 0 0.00799999 0.77875 0.00799999 1.75L0 12.25C0 13.2212 0.712 14 1.6 14H14.4C15.288 14 16 13.2212 16 12.25V1.75C16 0.77875 15.288 0 14.4 0ZM14.4 12.25H1.6V1.75H14.4V12.25ZM9.6 5.25L11.2 3.5L12.8 5.25H9.6ZM12.8 8.96875L11.2 10.7188L9.6 8.96875" fill="#008BB7"/>
</svg>
