<svg width="17" height="15" viewBox="0 0 17 15" fill="none" xmlns="http://www.w3.org/2000/svg">
<path fill-rule="evenodd" clip-rule="evenodd" d="M0.629636 0C0.462646 0 0.302496 0.0768713 0.184416 0.213703C0.0663364 0.350534 0 0.536118 0 0.729627V2.18888C0 2.38239 0.0663364 2.56797 0.184416 2.7048C0.302496 2.84164 0.462646 2.91851 0.629636 2.91851H1.88891C2.0559 2.91851 2.21605 2.84164 2.33413 2.7048C2.45221 2.56797 2.51854 2.38239 2.51854 2.18888V0.729627C2.51854 0.536118 2.45221 0.350534 2.33413 0.213703C2.21605 0.0768713 2.0559 0 1.88891 0H0.629636ZM1.88891 0.729627H0.629636V2.18888H1.88891V0.729627Z" fill="#008BB7"/>
<path d="M4.40625 1.45936C4.40625 1.26585 4.47259 1.08027 4.59067 0.943439C4.70875 0.806608 4.8689 0.729736 5.03589 0.729736H16.3693C16.5363 0.729736 16.6965 0.806608 16.8145 0.943439C16.9326 1.08027 16.999 1.26585 16.999 1.45936C16.999 1.65287 16.9326 1.83846 16.8145 1.97529C16.6965 2.11212 16.5363 2.18899 16.3693 2.18899H5.03589C4.8689 2.18899 4.70875 2.11212 4.59067 1.97529C4.47259 1.83846 4.40625 1.65287 4.40625 1.45936ZM5.03589 6.56675C4.8689 6.56675 4.70875 6.64362 4.59067 6.78045C4.47259 6.91728 4.40625 7.10287 4.40625 7.29638C4.40625 7.48989 4.47259 7.67547 4.59067 7.8123C4.70875 7.94913 4.8689 8.026 5.03589 8.026H16.3693C16.5363 8.026 16.6965 7.94913 16.8145 7.8123C16.9326 7.67547 16.999 7.48989 16.999 7.29638C16.999 7.10287 16.9326 6.91728 16.8145 6.78045C16.6965 6.64362 16.5363 6.56675 16.3693 6.56675H5.03589ZM5.03589 12.4038C4.8689 12.4038 4.70875 12.4806 4.59067 12.6175C4.47259 12.7543 4.40625 12.9399 4.40625 13.1334C4.40625 13.3269 4.47259 13.5125 4.59067 13.6493C4.70875 13.7861 4.8689 13.863 5.03589 13.863H16.3693C16.5363 13.863 16.6965 13.7861 16.8145 13.6493C16.9326 13.5125 16.999 13.3269 16.999 13.1334C16.999 12.9399 16.9326 12.7543 16.8145 12.6175C16.6965 12.4806 16.5363 12.4038 16.3693 12.4038H5.03589Z" fill="#008BB7"/>
<path fill-rule="evenodd" clip-rule="evenodd" d="M0 6.56679C0 6.37328 0.0663364 6.18769 0.184416 6.05086C0.302496 5.91403 0.462646 5.83716 0.629636 5.83716H1.88891C2.0559 5.83716 2.21605 5.91403 2.33413 6.05086C2.45221 6.18769 2.51854 6.37328 2.51854 6.56679V8.02604C2.51854 8.21955 2.45221 8.40513 2.33413 8.54196C2.21605 8.67879 2.0559 8.75567 1.88891 8.75567H0.629636C0.462646 8.75567 0.302496 8.67879 0.184416 8.54196C0.0663364 8.40513 0 8.21955 0 8.02604V6.56679ZM0.629636 6.56679H1.88891V8.02604H0.629636V6.56679ZM0.629636 11.6742C0.462646 11.6742 0.302496 11.751 0.184416 11.8879C0.0663364 12.0247 0 12.2103 0 12.4038V13.8631C0 14.0566 0.0663364 14.2421 0.184416 14.379C0.302496 14.5158 0.462646 14.5927 0.629636 14.5927H1.88891C2.0559 14.5927 2.21605 14.5158 2.33413 14.379C2.45221 14.2421 2.51854 14.0566 2.51854 13.8631V12.4038C2.51854 12.2103 2.45221 12.0247 2.33413 11.8879C2.21605 11.751 2.0559 11.6742 1.88891 11.6742H0.629636ZM1.88891 12.4038H0.629636V13.8631H1.88891V12.4038Z" fill="#008BB7"/>
</svg>
