<svg width="20" height="21" viewBox="0 0 20 21" fill="none" xmlns="http://www.w3.org/2000/svg">
<path d="M10.9375 3.3125C10.9375 2.93125 10.786 2.56562 10.5165 2.29603C10.2469 2.02645 9.88125 1.875 9.5 1.875C9.11875 1.875 8.75312 2.02645 8.48353 2.29603C8.21395 2.56562 8.0625 2.93125 8.0625 3.3125H10.9375ZM6.625 3.3125C6.625 2.55 6.9279 1.81874 7.46707 1.27957C8.00624 0.740401 8.7375 0.4375 9.5 0.4375C10.2625 0.4375 10.9938 0.740401 11.5329 1.27957C12.0721 1.81874 12.375 2.55 12.375 3.3125H18.125C18.3156 3.3125 18.4984 3.38823 18.6332 3.52302C18.768 3.65781 18.8438 3.84063 18.8438 4.03125C18.8438 4.22187 18.768 4.40469 18.6332 4.53948C18.4984 4.67427 18.3156 4.75 18.125 4.75H17.3142L16.9793 7.20813C16.5481 6.96375 16.0895 6.75819 15.6122 6.59719L15.8638 4.75H3.13619L4.8425 17.2606C4.91305 17.777 5.1683 18.2505 5.56103 18.5933C5.95375 18.936 6.45735 19.1249 6.97862 19.125H6.99444C7.44581 19.6712 7.96762 20.1542 8.54694 20.5625H6.97862C6.10968 20.5625 5.27017 20.2476 4.61552 19.6762C3.96087 19.1048 3.53542 18.3156 3.41794 17.4546L1.68575 4.75H0.875C0.684376 4.75 0.501559 4.67427 0.366767 4.53948C0.231975 4.40469 0.15625 4.22187 0.15625 4.03125C0.15625 3.84063 0.231975 3.65781 0.366767 3.52302C0.501559 3.38823 0.684376 3.3125 0.875 3.3125H6.625ZM13.0938 20.5625C13.9432 20.5625 14.7844 20.3952 15.5692 20.0701C16.3541 19.745 17.0672 19.2685 17.6678 18.6678C18.2685 18.0672 18.745 17.3541 19.0701 16.5692C19.3952 15.7844 19.5625 14.9432 19.5625 14.0938C19.5625 13.2443 19.3952 12.4031 19.0701 11.6183C18.745 10.8334 18.2685 10.1203 17.6678 9.51965C17.0672 8.91897 16.3541 8.44249 15.5692 8.1174C14.7844 7.79232 13.9432 7.625 13.0938 7.625C11.3781 7.625 9.73278 8.30653 8.51965 9.51965C7.30653 10.7328 6.625 12.3781 6.625 14.0938C6.625 15.8094 7.30653 17.4547 8.51965 18.6678C9.73278 19.881 11.3781 20.5625 13.0938 20.5625ZM11.8057 11.3682L10.5163 12.6562H12.7344C13.2535 12.6562 13.7676 12.7585 14.2472 12.9572C14.7268 13.1558 15.1626 13.447 15.5297 13.8141C15.8967 14.1812 16.1879 14.617 16.3866 15.0966C16.5852 15.5762 16.6875 16.0902 16.6875 16.6094V16.9688C16.6875 17.1594 16.6118 17.3422 16.477 17.477C16.3422 17.6118 16.1594 17.6875 15.9688 17.6875C15.7781 17.6875 15.5953 17.6118 15.4605 17.477C15.3257 17.3422 15.25 17.1594 15.25 16.9688V16.6094C15.25 15.9422 14.985 15.3023 14.5132 14.8306C14.0414 14.3588 13.4016 14.0938 12.7344 14.0938H10.5163L11.8057 15.3818C11.9407 15.5167 12.0165 15.6998 12.0165 15.8906C12.0165 16.0815 11.9407 16.2645 11.8057 16.3995C11.6708 16.5345 11.4877 16.6103 11.2969 16.6103C11.106 16.6103 10.923 16.5345 10.788 16.3995L8.2695 13.8781C8.20306 13.8114 8.15042 13.7323 8.1146 13.6453C8.07878 13.5582 8.06047 13.4649 8.06074 13.3708C8.06101 13.2767 8.07984 13.1835 8.11615 13.0967C8.15247 13.0098 8.20555 12.931 8.27238 12.8647L10.788 10.3491C10.8548 10.2822 10.9342 10.2292 11.0215 10.1931C11.1088 10.1569 11.2024 10.1383 11.2969 10.1383C11.3914 10.1383 11.485 10.1569 11.5723 10.1931C11.6596 10.2292 11.7389 10.2822 11.8057 10.3491C11.8726 10.4159 11.9256 10.4952 11.9618 10.5825C11.9979 10.6698 12.0165 10.7634 12.0165 10.8579C12.0165 10.9524 11.9979 11.046 11.9618 11.1333C11.9256 11.2207 11.8726 11.3 11.8057 11.3668V11.3682Z" fill="#008BB7"/>
</svg>
