<svg width="18" height="16" viewBox="0 0 18 16" fill="none" xmlns="http://www.w3.org/2000/svg">
<path d="M17.25 1.25754C17.25 1.25754 15.7365 2.15154 14.895 2.40504C14.4433 1.88567 13.843 1.51756 13.1753 1.35049C12.5076 1.18341 11.8046 1.22544 11.1616 1.47088C10.5185 1.71633 9.96633 2.15334 9.57974 2.72283C9.19314 3.29232 8.99077 3.96679 9 4.65504V5.40504C7.68198 5.43922 6.37596 5.1469 5.19826 4.55413C4.02056 3.96135 3.00774 3.08652 2.25 2.00754C2.25 2.00754 -0.75 8.75754 6 11.7575C4.4554 12.806 2.61537 13.3317 0.75 13.2575C7.5 17.0075 15.75 13.2575 15.75 4.63254C15.75 4.42404 15.729 4.21554 15.69 4.01004C16.455 3.25554 17.25 1.25754 17.25 1.25754Z" stroke="#F8F8F8" stroke-width="1.5" stroke-linecap="round" stroke-linejoin="round"/>
</svg>
