<svg width="17" height="21" viewBox="0 0 17 21" fill="none" xmlns="http://www.w3.org/2000/svg">
<path d="M0.625 2.625C0.625 1.92881 0.901562 1.26113 1.39384 0.768845C1.88613 0.276562 2.55381 0 3.25 0L13.75 0C14.4462 0 15.1139 0.276562 15.6062 0.768845C16.0984 1.26113 16.375 1.92881 16.375 2.625V20.3438C16.3749 20.4625 16.3427 20.5789 16.2817 20.6807C16.2206 20.7826 16.1332 20.8659 16.0285 20.922C15.9239 20.978 15.806 21.0046 15.6874 20.9989C15.5688 20.9932 15.454 20.9555 15.3552 20.8898L8.5 17.1951L1.64481 20.8898C1.54599 20.9555 1.43118 20.9932 1.31261 20.9989C1.19404 21.0046 1.07615 20.978 0.971499 20.922C0.866849 20.8659 0.779355 20.7826 0.718337 20.6807C0.657319 20.5789 0.625061 20.4625 0.625 20.3438V2.625ZM3.25 1.3125C2.9019 1.3125 2.56806 1.45078 2.32192 1.69692C2.07578 1.94306 1.9375 2.2769 1.9375 2.625V19.1179L8.13644 15.8602C8.24414 15.7886 8.37063 15.7503 8.5 15.7503C8.62937 15.7503 8.75586 15.7886 8.86356 15.8602L15.0625 19.1179V2.625C15.0625 2.2769 14.9242 1.94306 14.6781 1.69692C14.4319 1.45078 14.0981 1.3125 13.75 1.3125H3.25Z" fill="#008BB7"/>
</svg>
