<svg width="158" height="133" viewBox="0 0 158 133" fill="none" xmlns="http://www.w3.org/2000/svg">
<path d="M158 58.1533C158 93.6533 133 110.653 108.5 110.653C69.0002 109.5 73.5002 84.1533 65.5002 61.6533C63.5002 19.6533 73.0671 -2.05485 109.5 0.153259C142.5 2.15329 158 33.5766 158 58.1533ZM98.0003 58.1533C97.5002 83.6533 91.0002 81.1533 104.5 80.6533C113.5 80.32 124.953 71.1533 124.953 58.1533C124.953 49.6192 120 36.6533 109.5 36.6533C99.0003 36.6533 98.0003 49.6192 98.0003 58.1533Z" fill="#008bb7"/>
<g filter="url(#filter0_f_636_10)">
<path d="M75.5 97.5C87.9 92.7 92.8333 86.3333 95.5 80C101.5 83.5 93.8982 105.422 91 104.5C80 101 81.3333 99.5 75.5 97.5Z" fill="#878787"/>
</g>
<path d="M98 61.6533C98 71.4435 96.0969 81.0138 90.6578 89.154C85.2186 97.2943 77.4878 103.639 68.4429 107.385C59.3979 111.132 49.4451 112.112 39.8431 110.202C30.241 108.292 21.4209 103.578 14.4982 96.6551C7.57554 89.7324 2.86112 80.9124 0.951151 71.3103C-0.958818 61.7082 0.0214477 51.7554 3.76799 42.7105C7.51452 33.6655 13.8591 25.9347 21.9993 20.4956C30.1395 15.0564 36.6518 13.6533 46.4419 13.6533L46.4419 46.6533C43.3417 46.6533 43.3691 46.8974 40.7913 48.6199C38.2136 50.3423 36.2044 52.7904 35.018 55.6547C33.8316 58.5189 33.5212 61.6707 34.126 64.7114C34.7308 67.7521 36.2238 70.5452 38.416 72.7374C40.6082 74.9296 43.4012 76.4225 46.4419 77.0273C49.4826 77.6322 52.6344 77.3217 55.4987 76.1353C58.3629 74.9489 60.8111 72.9398 62.5335 70.362C64.2559 67.7842 65.1752 64.7536 65.1752 61.6533H98Z" fill="#008bb7"/>
<defs>
<filter id="filter0_f_636_10" x="47.5" y="52" width="78.2451" height="80.5283" filterUnits="userSpaceOnUse" color-interpolation-filters="sRGB">
<feFlood flood-opacity="0" result="BackgroundImageFix"/>
<feBlend mode="normal" in="SourceGraphic" in2="BackgroundImageFix" result="shape"/>
<feGaussianBlur stdDeviation="14" result="effect1_foregroundBlur_636_10"/>
</filter>
</defs>
</svg>
