<svg width="158" height="133" viewBox="0 0 158 133" fill="none" xmlns="http://www.w3.org/2000/svg">
<path d="M50.7473 19.2515C50.7473 29.7348 42.9218 34.755 35.2527 34.755C22.8884 34.4144 24.297 26.9294 21.7928 20.2851C21.1668 7.88235 24.1614 1.47187 35.5658 2.12393C45.8955 2.71455 50.7473 11.994 50.7473 19.2515ZM31.966 19.2515C31.8095 26.7818 29.7749 26.0435 34.0006 25.8959C36.8178 25.7974 40.4027 23.0905 40.4027 19.2515C40.4027 16.7314 38.8525 12.9025 35.5658 12.9025C32.2791 12.9025 31.966 16.7314 31.966 19.2515Z" fill="white"/>
<g filter="url(#filter0_f_1669_119)">
<path d="M24.9235 30.8708C28.805 29.4534 30.3492 27.5733 31.184 25.703C33.0621 26.7366 30.6826 33.2102 29.7754 32.9379C26.3321 31.9044 26.7495 31.4614 24.9235 30.8708Z" fill="#878787"/>
</g>
<path d="M31.9662 20.2851C31.9662 23.1762 31.3705 26.0023 29.6679 28.4061C27.9654 30.81 25.5454 32.6835 22.7142 33.7899C19.8829 34.8963 16.7675 35.1858 13.7618 34.6217C10.7562 34.0577 7.99531 32.6655 5.82836 30.6212C3.66141 28.5769 2.18569 25.9723 1.58783 23.1368C0.98997 20.3013 1.29681 17.3622 2.46956 14.6912C3.64231 12.0202 5.62828 9.73727 8.17635 8.13107C10.7244 6.52488 12.7629 6.11053 15.8274 6.11053L15.8274 15.8555C14.857 15.8555 14.8656 15.9276 14.0587 16.4363C13.2518 16.9449 12.6229 17.6678 12.2515 18.5137C11.8801 19.3595 11.783 20.2902 11.9723 21.1882C12.1616 22.0861 12.6289 22.9109 13.3151 23.5582C14.0013 24.2056 14.8756 24.6465 15.8274 24.8251C16.7792 25.0037 17.7658 24.912 18.6624 24.5617C19.559 24.2113 20.3253 23.618 20.8644 22.8568C21.4036 22.0956 21.6913 21.2006 21.6913 20.2851H31.9662Z" fill="white"/>
<defs>
<filter id="filter0_f_1669_119" x="0.0695896" y="0.84907" width="56.6712" height="56.9512" filterUnits="userSpaceOnUse" color-interpolation-filters="sRGB">
<feFlood flood-opacity="0" result="BackgroundImageFix"/>
<feBlend mode="normal" in="SourceGraphic" in2="BackgroundImageFix" result="shape"/>
<feGaussianBlur stdDeviation="12.427" result="effect1_foregroundBlur_1669_119"/>
</filter>
</defs>
</svg>
